ffplay started on 2021-05-15 at 00:33:20
Report written to "ffplay-20210515-003320.log"
Log level: 48
Command line:
./ffplay -report -i /home/antonello/Downloads/test2.mp4
ffplay version 4.3.2 Copyright (c) 2003-2021 the FFmpeg developers
  built with gcc 9 (Ubuntu 9.3.0-17ubuntu1~20.04)
  configuration: 
  libavutil      56. 51.100 / 56. 51.100
  libavcodec     58. 91.100 / 58. 91.100
  libavformat    58. 45.100 / 58. 45.100
  libavdevice    58. 10.100 / 58. 10.100
  libavfilter     7. 85.100 /  7. 85.100
  libswscale      5.  7.100 /  5.  7.100
  libswresample   3.  7.100 /  3.  7.100
Initialized opengl renderer.
[NULL @ 0x7fd76c000bc0] Opening '/home/antonello/Downloads/test2.mp4' for reading
[file @ 0x7fd76c001740] Setting default whitelist 'file,crypto,data'
[mov,mp4,m4a,3gp,3g2,mj2 @ 0x7fd76c000bc0] Format mov,mp4,m4a,3gp,3g2,mj2 probed with size=2048 and score=100
[mov,mp4,m4a,3gp,3g2,mj2 @ 0x7fd76c000bc0] ISO: File Type Major Brand: isom
[mov,mp4,m4a,3gp,3g2,mj2 @ 0x7fd76c000bc0] Unknown dref type 0x206c7275 size 12
    nan    :  0.000 fd=   0 aq=    0KB vq=    0KB sq=    0B f=0/0   [mov,mp4,m4a,3gp,3g2,mj2 @ 0x7fd76c000bc0] Processing st: 0, edit list 0 - media time: 0, duration: 1801800
[mov,mp4,m4a,3gp,3g2,mj2 @ 0x7fd76c000bc0] Unknown dref type 0x206c7275 size 12
[mov,mp4,m4a,3gp,3g2,mj2 @ 0x7fd76c000bc0] Processing st: 1, edit list 0 - media time: 0, duration: 2882880
[mov,mp4,m4a,3gp,3g2,mj2 @ 0x7fd76c000bc0] Before avformat_find_stream_info() pos: 20607 bytes read:32768 seeks:0 nb_streams:2
[h264 @ 0x7fd76c002a00] nal_unit_type: 7(SPS), nal_ref_idc: 3
[h264 @ 0x7fd76c002a00] nal_unit_type: 8(PPS), nal_ref_idc: 3
[h264 @ 0x7fd76c002a00] nal_unit_type: 9(AUD), nal_ref_idc: 0
[h264 @ 0x7fd76c002a00] nal_unit_type: 7(SPS), nal_ref_idc: 3
[h264 @ 0x7fd76c002a00] nal_unit_type: 8(PPS), nal_ref_idc: 3
[h264 @ 0x7fd76c002a00] nal_unit_type: 6(SEI), nal_ref_idc: 0
[h264 @ 0x7fd76c002a00] nal_unit_type: 6(SEI), nal_ref_idc: 0
[h264 @ 0x7fd76c002a00] nal_unit_type: 5(IDR), nal_ref_idc: 3
[h264 @ 0x7fd76c002a00] Format yuv420p chosen by get_format().
[h264 @ 0x7fd76c002a00] Reinit context to 1280x720, pix_fmt: yuv420p
[mov,mp4,m4a,3gp,3g2,mj2 @ 0x7fd76c000bc0] All info found
[mov,mp4,m4a,3gp,3g2,mj2 @ 0x7fd76c000bc0] After avformat_find_stream_info() pos: 1488153 bytes read:98304 seeks:1 frames:48
Input #0, mov,mp4,m4a,3gp,3g2,mj2, from '/home/antonello/Downloads/test2.mp4':
  Metadata:
    major_brand     : isom
    minor_version   : 512
    compatible_brands: isomiso2avc1mp41
    encoder         : Lavf57.25.100
  Duration: 00:01:00.06, start: 0.000000, bitrate: 548 kb/s
    Stream #0:0(und), 1, 1/30000: Video: h264 (Main) (avc1 / 0x31637661), yuv420p(tv, bt709), 1280x720, 349 kb/s, SAR 1:1 DAR 16:9, 29.97 fps, 29.97 tbr, 30k tbn, 59.94 tbc (default)
    Metadata:
      handler_name    : VideoHandler
    Stream #0:1(und), 47, 1/48000: Audio: aac (LC) (mp4a / 0x6134706D), 48000 Hz, stereo, fltp, 195 kb/s (default)
    Metadata:
      handler_name    : SoundHandler
detected 8 logical cores
[ffplay_abuffer @ 0x7fd76c019980] Setting 'sample_rate' to value '48000'
[ffplay_abuffer @ 0x7fd76c019980] Setting 'sample_fmt' to value 'fltp'
[ffplay_abuffer @ 0x7fd76c019980] Setting 'channels' to value '2'
[ffplay_abuffer @ 0x7fd76c019980] Setting 'time_base' to value '1/48000'
[ffplay_abuffer @ 0x7fd76c019980] Setting 'channel_layout' to value '0x3'
[ffplay_abuffer @ 0x7fd76c019980] tb:1/48000 samplefmt:fltp samplerate:48000 chlayout:0x3
[ffplay_abuffersink @ 0x7fd76c01a340] auto-inserting filter 'auto_resampler_0' between the filter 'ffplay_abuffer' and the filter 'ffplay_abuffersink'
[AVFilterGraph @ 0x7fd76c007300] query_formats: 2 queried, 0 merged, 3 already done, 0 delayed
[auto_resampler_0 @ 0x7fd76c07c4c0] [SWR @ 0x7fd76c054340] Using fltp internally between filters
[auto_resampler_0 @ 0x7fd76c07c4c0] ch:2 chl:stereo fmt:fltp r:48000Hz -> ch:2 chl:stereo fmt:s16 r:48000Hz
[h264 @ 0x7fd76c03c100] nal_unit_type: 7(SPS), nal_ref_idc: 3
[h264 @ 0x7fd76c03c100] nal_unit_type: 8(PPS), nal_ref_idc: 3
Output #0, mp4, to 'output.mp4':
    Stream #0:0, 0, 0/0: Video: h264 (Main), yuv420p(tv, bt709), 1280x720, q=2-31, 349 kb/s
    Stream #0:1, 0, 0/0: Audio: aac (LC), 48000 Hz, stereo, fltp, 195 kb/s
[file @ 0x7fd76c24f000] Setting default whitelist 'file,crypto,data'
[mp4 @ 0x7fd76c07a280] Timestamps are unset in a packet for stream 1. This is deprecated and will stop working in the future. Fix your code to set the timestamps properly
[mp4 @ 0x7fd76c07a280] Packet with invalid duration -9223372036854775808 in stream 1
[mp4 @ 0x7fd76c07a280] Encoder did not produce proper pts, making some up.
